<svg width="265.000000" height="44.270508" viewBox="0 0 265 44.2705" fill="none" xmlns="http://www.w3.org/2000/svg" xmlns:xlink="http://www.w3.org/1999/xlink">
	<desc>
			Created with Pixso.
	</desc>
	<defs>
		<linearGradient x1="9.443035" y1="16.185520" x2="9.443035" y2="11.829567" id="paint_linear_2335_31213_0" gradientUnits="userSpaceOnUse">
			<stop stop-color="#EA7438" stop-opacity="0.000000"/>
			<stop offset="1.000000" stop-color="#EA8D38"/>
		</linearGradient>
		<linearGradient x1="11.456054" y1="31.671356" x2="16.255562" y2="31.992435" id="paint_linear_2335_31214_0" gradientUnits="userSpaceOnUse">
			<stop stop-color="#EAB838"/>
			<stop offset="1.000000" stop-color="#EA7438" stop-opacity="0.000000"/>
		</linearGradient>
	</defs>
	<rect id="Logo" rx="-0.603865" width="248.792267" height="41.062801" transform="translate(15.603865 2.603865)" fill="#FFFFFF" fill-opacity="0"/>
	<path id="Vector" d="M13.98 16.18L9.17 16.18L7.39 13.53C6.9 12.59 8.02 11.72 8.77 11.66L14.44 11.66C15.13 11.66 15.99 12.83 15.59 13.53L13.98 16.18ZM4.19 38.31L9.17 17.45L13.98 17.45L18.97 38.31L11.46 44.27L4.19 38.31ZM0 27.28L0 32.04L4.84 30.88L7.88 18.73L0 27.28Z" fill="#FF6600" fill-opacity="1.000000" fill-rule="evenodd"/>
	<path id="Vector" d="M8.77 11.66C8.02 11.72 6.9 12.58 7.39 13.53L9.17 16.18L11.58 16.18L11.6 11.66L8.77 11.66Z" fill="url(#paint_linear_2335_31213_0)" fill-opacity="1.000000" fill-rule="evenodd"/>
	<path id="Rectangle 1" d="M11.45 17.45L13.98 17.45L16.25 26.92L11.45 31.67L11.45 17.45Z" fill="url(#paint_linear_2335_31214_0)" fill-opacity="1.000000" fill-rule="nonzero"/>
	<path id="Vector" d="M5.78 31.52L5.39 33.15C8.65 29.98 15.21 23.58 15.37 23.36L15.18 22.54L5.78 31.52ZM13.96 17.45L14.22 18.56L7.31 25.13L7.62 23.83L13.96 17.45ZM16.28 27.17L4.43 38.53L5.14 39.11L16.53 28.22L16.28 27.17ZM8.36 41.75L7.67 41.16L17.41 31.87L17.68 33.01L8.36 41.75Z" fill="#FFFFFF" fill-opacity="1.000000" fill-rule="evenodd"/>
	<rect id="Rectangle 858" x="27.141602" rx="3.623188" width="37.439613" height="16.908213" fill="#FF6600" fill-opacity="1.000000"/>
	<path id="v 2.01" d="M35.12 6.41L36.49 6.41L34.1 13L32.73 13L30.34 6.41L31.71 6.41L33.38 11.48L33.45 11.48L35.12 6.41ZM36.62 28L30.84 28L30.84 27.03L33.81 23.96C34.76 22.96 35.22 22.4 35.22 21.62C35.22 20.75 34.54 20.2 33.65 20.2C32.7 20.2 32.09 20.82 32.1 21.76L30.83 21.76C30.83 20.15 32.03 19.09 33.67 19.09C35.33 19.09 36.48 20.17 36.48 21.58C36.48 22.57 36.02 23.34 34.41 24.97L32.67 26.79L32.67 26.86L36.62 26.86L36.62 28ZM47.61 23.61C47.61 26.49 46.43 28.14 44.4 28.14C42.36 28.14 41.18 26.48 41.18 23.61C41.18 20.75 42.38 19.09 44.4 19.09C46.41 19.09 47.61 20.75 47.61 23.61ZM51.18 19.21L52.47 19.21L52.47 28L51.14 28L51.14 20.54L51.09 20.54L48.99 21.91L48.99 20.64L51.18 19.21ZM42.49 23.61C42.49 25.8 43.21 27 44.4 27C45.58 27 46.3 25.8 46.3 23.61C46.3 21.42 45.58 20.21 44.4 20.21C43.21 20.21 42.5 21.42 42.49 23.61ZM39.97 27.22C39.97 27.69 39.57 28.08 39.11 28.08C38.64 28.08 38.25 27.69 38.25 27.22C38.25 26.75 38.64 26.36 39.11 26.36C39.57 26.36 39.97 26.75 39.97 27.22Z" fill="#FFFFFF" fill-opacity="1.000000" fill-rule="evenodd"/>
</svg>
